<svg xmlns="http://www.w3.org/2000/svg" width="128" height="128" fill="none" viewBox="0 0 128 128" id="txt">
  <path stroke="#000" stroke-width="5" d="M76 27V41C76 42.6569 77.3431 44 79 44H93"></path>
  <path fill="#000" d="M33 68.1402V65.6002C33 65.3068 33.1467 65.1602 33.44 65.1602H44.28C44.5733 65.1602 44.72 65.3068 44.72 65.6002V68.1402C44.72 68.4335 44.5733 68.5802 44.28 68.5802H40.74V79.5602C40.74 79.8535 40.5867 80.0002 40.28 80.0002H37.4C37.1067 80.0002 36.96 79.8535 36.96 79.5602V68.5802H33.44C33.1467 68.5802 33 68.4335 33 68.1402zM59.4603 65.6002L54.9003 72.4202 59.6803 79.5602C59.7603 79.6935 59.7736 79.8002 59.7203 79.8802 59.6803 79.9602 59.587 80.0002 59.4403 80.0002H56.0203C55.7803 80.0002 55.5736 79.8535 55.4003 79.5602L52.7403 75.6002 50.0803 79.5602C49.9603 79.7468 49.8603 79.8668 49.7803 79.9202 49.7003 79.9735 49.587 80.0002 49.4403 80.0002H46.0603C45.9136 80.0002 45.8136 79.9668 45.7603 79.9002 45.7203 79.8202 45.7403 79.7068 45.8203 79.5602L50.6003 72.4202 46.0803 65.6002C46.0003 65.4802 45.9736 65.3802 46.0003 65.3002 46.027 65.2068 46.1136 65.1602 46.2603 65.1602H49.7203C49.867 65.1602 49.9803 65.1935 50.0603 65.2602 50.1403 65.3268 50.2336 65.4402 50.3403 65.6002L52.7603 69.2002 55.1603 65.6002C55.2536 65.4535 55.347 65.3468 55.4403 65.2802 55.5336 65.2002 55.6536 65.1602 55.8003 65.1602H59.2203C59.367 65.1602 59.4603 65.2068 59.5003 65.3002 59.5403 65.3935 59.527 65.4935 59.4603 65.6002zM60.8516 68.1402V65.6002C60.8516 65.3068 60.9982 65.1602 61.2916 65.1602H72.1316C72.4249 65.1602 72.5716 65.3068 72.5716 65.6002V68.1402C72.5716 68.4335 72.4249 68.5802 72.1316 68.5802H68.5916V79.5602C68.5916 79.8535 68.4382 80.0002 68.1316 80.0002H65.2516C64.9582 80.0002 64.8116 79.8535 64.8116 79.5602V68.5802H61.2916C60.9982 68.5802 60.8516 68.4335 60.8516 68.1402z"></path>
  <path stroke="#000" stroke-width=".5" d="M33 68.1402V65.6002C33 65.3068 33.1467 65.1602 33.44 65.1602H44.28C44.5733 65.1602 44.72 65.3068 44.72 65.6002V68.1402C44.72 68.4335 44.5733 68.5802 44.28 68.5802H40.74V79.5602C40.74 79.8535 40.5867 80.0002 40.28 80.0002H37.4C37.1067 80.0002 36.96 79.8535 36.96 79.5602V68.5802H33.44C33.1467 68.5802 33 68.4335 33 68.1402zM59.4603 65.6002L54.9003 72.4202 59.6803 79.5602C59.7603 79.6935 59.7736 79.8002 59.7203 79.8802 59.6803 79.9602 59.587 80.0002 59.4403 80.0002H56.0203C55.7803 80.0002 55.5736 79.8535 55.4003 79.5602L52.7403 75.6002 50.0803 79.5602C49.9603 79.7468 49.8603 79.8668 49.7803 79.9202 49.7003 79.9735 49.587 80.0002 49.4403 80.0002H46.0603C45.9136 80.0002 45.8136 79.9668 45.7603 79.9002 45.7203 79.8202 45.7403 79.7068 45.8203 79.5602L50.6003 72.4202 46.0803 65.6002C46.0003 65.4802 45.9736 65.3802 46.0003 65.3002 46.027 65.2068 46.1136 65.1602 46.2603 65.1602H49.7203C49.867 65.1602 49.9803 65.1935 50.0603 65.2602 50.1403 65.3268 50.2336 65.4402 50.3403 65.6002L52.7603 69.2002 55.1603 65.6002C55.2536 65.4535 55.347 65.3468 55.4403 65.2802 55.5336 65.2002 55.6536 65.1602 55.8003 65.1602H59.2203C59.367 65.1602 59.4603 65.2068 59.5003 65.3002 59.5403 65.3935 59.527 65.4935 59.4603 65.6002zM60.8516 68.1402V65.6002C60.8516 65.3068 60.9982 65.1602 61.2916 65.1602H72.1316C72.4249 65.1602 72.5716 65.3068 72.5716 65.6002V68.1402C72.5716 68.4335 72.4249 68.5802 72.1316 68.5802H68.5916V79.5602C68.5916 79.8535 68.4382 80.0002 68.1316 80.0002H65.2516C64.9582 80.0002 64.8116 79.8535 64.8116 79.5602V68.5802H61.2916C60.9982 68.5802 60.8516 68.4335 60.8516 68.1402z"></path>
  <path stroke="#000" stroke-linecap="round" stroke-width="5" d="M35 54.5L35 35C35 30.0294 39.0294 26 44 26H74.0785C75.9108 26 77.6701 26.7184 78.9786 28.0011L88.0509 36.8939L91.1244 40.1967C92.3299 41.4921 93 43.1959 93 44.9654V93C93 97.9706 88.9706 102 84 102H44C39.0294 102 35 97.9706 35 93L35 90"></path>
</svg>
